# xmcd
#
# Track frame offsets:
#	150
#	13555
#	20227
#	39380
#	52200
#	62792
#	78875
#	90822
#	101385
#	110240
#	125722
#	136872
#
# Disc length: 1973 seconds
#
# Revision: 0
# Processed by: cddbd v1.4PL0 Copyright (c) Steve Scherf et al.
# Submitted via: EasyCDDAExtractor 5.0.4.1
#
DISCID=9b07b30c
DTITLE=Tennessee Twin - Free To Do What?
DYEAR=1900
DGENRE=
TTITLE0=Free To Do What?
TTITLE1=Ruben, Oh Ruben
TTITLE2=Oh Darkness
TTITLE3=Tomorrow I'm Gonna Leave Him
TTITLE4=The Apple Of Your Black Eye
TTITLE5=These Thoughts Are Occupied
TTITLE6=Give That Dog A Bone
TTITLE7=Aunt Apple And Cousin Orange
TTITLE8=Southern Duckhead
TTITLE9=Big Emo Eyes
TTITLE10=Wildflowers
TTITLE11=It's Just Propane
EXTD=
EXTT0=
EXTT1=
EXTT2=
EXTT3=
EXTT4=
EXTT5=
EXTT6=
EXTT7=
EXTT8=
EXTT9=
EXTT10=
EXTT11=
PLAYORDER=
